<svg width="16" height="16" viewBox="0 0 16 16" fill="none" xmlns="http://www.w3.org/2000/svg">
<path fill-rule="evenodd" clip-rule="evenodd" d="M9.23886 2.0106L9.19514 2.0488L9.08606 2.05987L9.07479 2.09766L8.96076 2.10326C8.96076 2.10326 7.54337 2.67428 5.85408 2.98981C5.89756 2.94089 5.93585 2.88644 5.93585 2.88644C5.93585 2.88644 5.30892 3.03873 5.15601 3.18602C5.11253 3.1258 5.06881 3.08229 5.06881 3.08229L5.0307 3.13133L5.06881 3.19114L5.04675 3.24577L4.98186 3.27267H4.93802L4.92156 3.22953L4.74748 3.2234L4.73084 3.31594L4.68193 3.34855L4.55102 3.43615L4.50218 3.47371L4.36024 3.46311L4.33328 3.38105C4.33328 3.38105 3.86404 3.77877 3.45563 3.90362C3.91873 3.41372 4.88924 2.70689 4.88924 2.70689L4.88357 2.64732L4.80759 2.6419C4.80759 2.6419 3.03034 3.81662 2.77419 4.04514C2.94887 3.86571 3.11192 3.73503 3.11192 3.73503C3.11192 3.73503 2.35456 4.12126 2.21823 4.48518C2.19097 4.43679 2.18024 4.4146 2.18024 4.4146C2.18024 4.4146 2.3381 4.30587 2.41462 4.04514C2.57284 3.75699 2.8179 3.47371 2.8179 3.47371L2.41462 3.90362L2.28377 3.93082L2.10933 4.20839L2.13664 4.23035L1.9078 4.47994L1.95647 4.56129L1.93512 4.65431L1.88037 4.60033L1.82043 4.5072L1.08442 5.29014L1.04613 5.21956L0.507054 5.70375L0.79058 5.62752L0 6.40558C0 6.40558 1.09558 6.89531 2.91052 6.0463C4.68963 5.2151 6.6715 5.8026 6.6715 5.8026C6.6715 5.8026 2.56724 6.37291 1.65159 9.61954C0.795113 12.656 4.15305 14.0579 5.80476 14.0745L7.95202 14.0584C7.95202 14.0584 7.67452 14.0252 7.3966 13.927C8.12104 13.8784 8.42103 13.7806 8.42103 13.7806C8.42103 13.7806 8.38804 13.7859 8.17042 13.7155C9.44581 13.6007 9.78373 13.3945 9.78373 13.3945L9.653 13.3616V13.3344C9.653 13.3344 10.6066 13.2421 12.2857 12.4152C11.37 12.7962 10.3339 12.8722 10.3339 12.8722L10.4813 12.7034C10.4813 12.7034 10.5794 12.7306 10.6393 12.7091C10.939 12.5512 10.9444 12.323 10.9444 12.323C10.9444 12.323 10.95 12.5024 11.0807 12.3612C11.2334 12.2246 11.1134 12.1107 11.1134 12.1107L11.0266 12.0726C11.0266 12.0726 11.1954 11.8933 11.37 11.7576C11.2718 11.7136 11.2827 11.5611 11.2827 11.5611L11.3858 11.5505L11.4132 11.485L11.3315 11.4523L11.2718 11.3984L11.3645 11.3709C11.3645 11.3709 11.953 10.5011 12.8579 9.72309C12.4819 9.91371 12.3725 9.97322 12.3725 9.97322C12.3725 9.97322 12.5404 9.68638 13.8388 8.91283C14.7124 8.3921 14.9017 7.93909 14.9017 7.93909C14.9017 7.93909 14.2603 8.90022 13.2176 8.8751C12.1048 8.84785 11.2786 8.99889 11.2718 8.99978C11.2772 8.99895 11.7854 8.90058 12.0732 8.61384C12.0732 8.61384 11.0778 8.96128 10.4869 8.56475C9.14034 7.66165 6.94394 8.05877 6.94394 8.05877C6.94394 8.05877 4.87439 8.32212 4.44761 9.91937C4.14208 11.0616 5.45074 11.3759 5.45074 11.3759C5.45074 11.3759 6.28677 11.5742 6.59505 10.7787C6.78058 10.2996 6.37712 10.0165 6.37712 10.0165C6.37712 10.0165 5.69831 9.34894 6.20268 8.78774C6.76967 8.15667 8.49194 8.56969 8.49194 8.56969C8.49194 8.56969 10.825 9.14672 9.29868 11.8876C8.3067 13.6281 6.14829 13.4545 6.14829 13.4545C6.14829 13.4545 3.95713 13.5518 3.6847 11.257C3.60824 10.5715 3.70629 10.2014 3.70629 10.2014L3.80988 10.1134L3.76498 10.0805V10.0358C3.76498 10.0358 3.76915 9.99078 3.85503 9.99078C3.94043 9.99078 3.89988 9.89276 3.89988 9.89276L3.80583 9.88455C3.80583 9.88455 3.80154 9.7832 3.89565 9.70566C3.8505 9.6931 3.85503 9.66864 3.85503 9.66864C3.85503 9.66864 3.89988 9.56313 3.99369 9.6033C4.0018 9.75452 4.09609 9.64853 4.09609 9.64853C4.09609 9.64853 3.99805 9.66477 4.05924 9.44428C4.1614 9.2242 4.48834 9.03263 4.48834 9.03263C4.48834 9.03263 4.43926 9.02817 4.39447 8.97949C4.69291 8.88171 4.81129 8.63247 4.81129 8.63247L4.76203 8.62051C4.76203 8.62051 4.72547 8.67324 4.64788 8.66134C4.66434 8.59986 4.68897 8.57147 4.68897 8.57147L4.64788 8.56397V8.47363L4.5416 8.4656C4.5416 8.4656 4.46377 8.41632 4.54548 8.3308C4.75827 8.2898 4.74199 8.07377 4.74199 8.07377L4.81952 8.09835L4.8726 8.01688L4.90546 7.92683L4.94637 7.88214L5.07299 7.93493L5.14646 7.97189L5.33063 8.1312L5.17927 7.8653L5.21213 7.79621L5.2324 7.73068L5.13036 7.71884L5.12625 7.66986L5.2324 7.62892L5.24075 7.59642L5.27344 7.5841L5.28966 7.48644L5.44895 7.4746L5.52291 7.31112C5.52291 7.31112 6.36639 6.12671 8.36103 6.2424C9.86501 6.32911 10.2481 7.23846 12.046 7.11229C13.1356 7.03665 13.4296 7.15591 13.4296 7.15591C13.4296 7.15591 12.8744 6.76426 12.2857 6.73212C12.8851 6.69904 13.354 6.63381 13.354 6.63381L13.2774 6.59298L13.2037 6.55252L13.1465 6.52752L13.0731 6.5771L12.9749 6.58513L12.8198 6.51961L12.7461 6.49527L12.6724 6.50324L12.5989 6.59298L12.4924 6.5771L12.1902 6.51961L12.517 6.50324L12.6149 6.4379L12.6888 6.39743H12.7869L12.7952 6.45414L12.9586 6.47075L13.0319 6.51961L13.1384 6.47075L13.2448 6.50324L13.3265 6.47075L13.4079 6.42992L13.4654 6.41391L13.5554 6.4379L13.7027 6.30744L13.7761 6.29959L13.8246 6.38106L13.8661 6.41391L13.8246 6.47866H13.9068L13.9313 6.37291L13.9152 6.33179L14.0292 6.29959H14.1523L14.1687 6.38106L14.2093 6.33179L14.2175 6.27489L14.324 6.20169L14.7325 5.98138L14.8713 5.94037L14.9367 5.89163L15.2394 5.8586C15.2394 5.8586 15.6566 5.72821 16 5.288C16 5.288 14.6508 6.16063 12.6395 5.68756C11.2382 5.35727 11.0128 5.01037 11.0128 5.01037L11.119 4.96949L10.9557 4.92069L10.8739 4.88028L10.7264 4.89623L10.6122 4.80654H10.3915L10.3586 4.74923L10.1379 4.73293L10.1131 4.69198L10.5549 4.68365L10.6529 4.77417L10.7592 4.75733L10.8902 4.82273L10.9476 4.83112L11.0209 4.88028H11.1681L11.2172 4.94491L11.1762 4.99395L11.2498 5.07572L11.3482 5.09988V4.99395L11.2907 4.92878L11.3482 4.83945H11.2661L11.2257 4.80654L11.2088 4.65919L11.111 4.63515C11.111 4.63515 9.6063 3.72134 8.36383 4.24386C8.36383 4.24386 8.43743 4.15369 8.5737 4.10495C8.61199 4.09972 8.58456 4.06139 8.58456 4.06139L8.61718 4.04514L8.7915 4.05586L8.77522 4.01789L9.02607 4.01247L9.00978 3.95802L9.15191 3.95534L9.004 3.91416L8.94227 3.99426L8.89283 3.93826L8.81864 3.91416L8.83027 4.00021L8.74272 3.98016L8.63364 4.01247L8.55754 4.02872L8.47017 4.01247L8.4645 3.96361L8.36663 4.02872L8.31182 4.01789L8.23543 4.00682L8.22493 3.86571L8.36103 3.78359C8.36103 3.78359 7.25448 3.74014 6.24645 4.13191C5.23789 4.52362 5.13442 4.70329 4.01153 4.93717C4.87826 4.65919 5.3849 4.31711 5.64672 4.15369C6.37175 3.74014 7.89244 2.91381 8.41005 2.60917C8.42103 2.549 8.43743 2.549 8.43743 2.549L8.49736 2.58703L8.57919 2.49497L8.66662 2.4733V2.44028L8.80272 2.4351L8.80791 2.38606L8.87363 2.39165L8.88991 2.34273L9.004 2.31012L8.86814 2.29358L8.86236 2.25567L9.004 2.24442L9.02082 2.20133L9.09101 2.23924L9.21101 2.10873L9.30947 2.09249L9.36386 2.00012L9.23886 2.0106ZM9.47883 3.82595L9.32043 3.89267L9.25518 3.89796L9.22274 3.88838L9.20532 3.90183L9.18308 3.95468L9.29872 3.95266L9.31482 3.92534L9.86016 3.88166L10.6066 3.83815L9.93638 3.79995L9.88169 3.84952L9.78907 3.84375L9.77804 3.82774L9.7215 3.80792L9.61475 3.86571H9.54938L9.53298 3.76751L9.47883 3.82595ZM9.16154 3.9732L9.20804 3.9861L9.21374 3.9721L9.16154 3.9732Z" fill="#E41E26"/>
</svg>
