<svg width="16" height="16" viewBox="0 0 16 16" fill="none" xmlns="http://www.w3.org/2000/svg">
<path fill-rule="evenodd" clip-rule="evenodd" d="M14.182 12.7805L14.1821 12.7806C13.3062 13.2585 12.3053 13.5361 11.241 13.5519C11.209 13.5526 11.1767 13.5527 11.1445 13.5527C11.1149 13.5527 11.0853 13.5526 11.0558 13.5521C10.8289 13.549 10.6048 13.534 10.3842 13.5077C9.58463 13.4124 8.83065 13.1684 8.15066 12.8043C8.14699 12.8024 8.14345 12.8005 8.13984 12.7985C8.13177 12.7942 8.12371 12.7898 8.11559 12.7855C8.11469 12.785 8.1139 12.7845 8.11294 12.784C7.52982 12.4722 6.89051 12.2517 6.21402 12.1416C5.89057 12.0891 5.55871 12.0617 5.22046 12.0617C5.15464 12.0617 5.08906 12.0628 5.02378 12.0648C4.29843 12.0876 3.60461 12.2362 2.96368 12.4896C2.50871 12.6694 2.08022 12.902 1.68602 13.18L1.68578 13.1796C1.6152 13.2337 1.52688 13.2659 1.43116 13.2659C1.19989 13.2659 1.01235 13.0784 1.01235 12.8471C1.01235 12.7085 1.07974 12.5856 1.1834 12.5094C1.18358 12.5093 1.1837 12.5092 1.18382 12.509C1.18803 12.506 1.19224 12.5031 1.1964 12.5002C1.19664 12.5001 1.19676 12.4999 1.197 12.4998C1.56683 12.2384 1.96326 12.0121 2.38134 11.8257C2.73944 11.666 3.11361 11.5356 3.50059 11.4376C3.58644 11.4159 3.67296 11.3957 3.76008 11.3771C3.99093 11.328 4.22599 11.2902 4.46473 11.2645C4.71291 11.2378 4.96512 11.2241 5.22046 11.2241C5.2947 11.2241 5.3687 11.2253 5.44241 11.2276C5.7324 11.2366 6.01794 11.2633 6.29789 11.3068C7.08683 11.429 7.83209 11.6834 8.51039 12.0465C8.52339 12.0535 8.53638 12.0605 8.54938 12.0675C9.12666 12.376 9.76525 12.5848 10.4421 12.6708H10.4422C10.6722 12.7001 10.9066 12.7151 11.1445 12.7151C11.5552 12.7151 11.9555 12.6702 12.3407 12.585C12.8493 12.4725 13.3315 12.2898 13.7767 12.0475C13.7787 12.0464 13.7808 12.0452 13.7828 12.0442H13.7829C13.7848 12.0431 13.7868 12.042 13.7888 12.0409C13.8474 12.0097 13.9142 11.9921 13.9852 11.9921C14.2164 11.9921 14.404 12.1795 14.404 12.4109C14.404 12.571 14.314 12.7101 14.182 12.7805" fill="#498FF6"/>
<mask id="mask0" mask-type="alpha" maskUnits="userSpaceOnUse" x="2" y="12" width="11" height="4">
<path fill-rule="evenodd" clip-rule="evenodd" d="M2.60553 12.6899H12.4692V15.0185H2.60553V12.6899Z" fill="white"/>
</mask>
<g mask="url(#mask0)">
<path fill-rule="evenodd" clip-rule="evenodd" d="M12.4692 14.5449C12.4692 14.7562 12.3126 14.9309 12.1094 14.9596C12.1092 14.9596 12.109 14.9596 12.1088 14.9596C12.1083 14.9597 12.1077 14.9598 12.1072 14.9598C12.107 14.9598 12.1069 14.9598 12.1066 14.9599C12.1064 14.9599 12.1062 14.9599 12.1059 14.9599C12.1054 14.96 12.1049 14.9601 12.1044 14.9601C12.1029 14.9603 12.1014 14.9605 12.0999 14.9607C12.0985 14.961 12.097 14.9611 12.0954 14.9612C12.0946 14.9613 12.0939 14.9614 12.0932 14.9615C11.8749 14.988 11.6537 15.0054 11.4301 15.0134C11.3353 15.0168 11.24 15.0185 11.1444 15.0185C10.9121 15.0185 10.6821 15.0084 10.4549 14.9885C10.1692 14.9635 9.8877 14.9232 9.61154 14.8683C9.11392 14.7694 8.63338 14.6233 8.17463 14.4347C7.92633 14.3326 7.68441 14.2181 7.44958 14.092C7.44128 14.0874 7.43298 14.083 7.42467 14.0785C6.76798 13.7269 6.01754 13.5275 5.22048 13.5275C4.94817 13.5275 4.68134 13.5508 4.42179 13.5955C3.99504 13.6689 3.58815 13.8001 3.20941 13.9809L3.20905 13.9801C3.15333 14.0075 3.09058 14.0229 3.02434 14.0229C2.79301 14.0229 2.60553 13.8354 2.60553 13.6041C2.60553 13.4466 2.69253 13.3093 2.82116 13.2378C2.82116 13.2378 2.82122 13.2378 2.82128 13.2378C2.83127 13.2329 2.84132 13.2282 2.85143 13.2233C2.85684 13.2208 2.86238 13.2181 2.86791 13.2155C2.86791 13.2155 2.86797 13.2155 2.86803 13.2155C3.06995 13.12 3.27878 13.0365 3.49333 12.9658C4.03661 12.7868 4.6172 12.6899 5.22048 12.6899C5.3446 12.6899 5.46787 12.6941 5.59001 12.7021C6.39134 12.7551 7.14587 12.9793 7.81737 13.3384C7.8279 13.3441 7.83837 13.3498 7.8489 13.3555C8.43261 13.6687 9.06609 13.9013 9.7344 14.0384C9.79673 14.0512 9.85936 14.0632 9.9223 14.0743C10.2485 14.132 10.5825 14.1669 10.9226 14.1774C10.9963 14.1797 11.0702 14.1809 11.1444 14.1809C11.3202 14.1809 11.4945 14.1744 11.667 14.1616C11.7875 14.1527 11.9071 14.1408 12.0257 14.1258L12.0259 14.1268C12.034 14.1262 12.0421 14.1261 12.0504 14.1261C12.2817 14.1261 12.4692 14.3136 12.4692 14.5449" fill="#498FF6"/>
</g>
<mask id="mask1" mask-type="alpha" maskUnits="userSpaceOnUse" x="1" y="1" width="14" height="12">
<path fill-rule="evenodd" clip-rule="evenodd" d="M1 1.04971H14.4016V12.0869H1V1.04971Z" fill="white"/>
</mask>
<g mask="url(#mask1)">
<path fill-rule="evenodd" clip-rule="evenodd" d="M9.02699 8.76584C9.02699 8.85801 8.9516 8.9334 8.85949 8.9334H6.54212C6.44995 8.9334 6.37456 8.85801 6.37456 8.76584V6.44847C6.37456 6.35636 6.44995 6.28097 6.54212 6.28097H8.85949C8.9516 6.28097 9.02699 6.35636 9.02699 6.44847V8.76584ZM11.6568 2.34144C10.5481 1.52928 9.18047 1.04971 7.70078 1.04971C4.00004 1.04971 0.999981 4.0497 0.999981 7.7505C0.999981 9.05463 1.37258 10.2717 2.01701 11.3012C2.99071 10.8486 4.07609 10.5959 5.22042 10.5959C6.52076 10.5959 7.74488 10.9221 8.81545 11.4972C8.82417 11.502 8.83278 11.5066 8.84144 11.5112C9.52762 11.8786 10.3117 12.0869 11.1444 12.0869C11.8564 12.0869 12.5329 11.9346 13.1429 11.6608C13.9351 10.5603 14.4016 9.20986 14.4016 7.7505C14.4016 5.5294 13.321 3.56074 11.6568 2.34144V2.34144Z" fill="#060083"/>
</g>
</svg>
