<svg width="32" height="32" viewBox="0 0 32 32" fill="none" xmlns="http://www.w3.org/2000/svg">
<path fill-rule="evenodd" clip-rule="evenodd" d="M3 14C2.44772 14 2 14.4477 2 15V25C2 25.5523 2.44772 26 3 26H19.5C20.0523 26 20.5 25.5523 20.5 25V15C20.5 14.4477 20.0523 14 19.5 14H3ZM5.5 20.5V21.5V22H6H6.5V21.5V20.5H7.5C8.32843 20.5 9 19.8284 9 19C9 18.1716 8.32843 17.5 7.5 17.5H6.5H6H5.5V18V18.5V19.5V20.5ZM7.5 19.5H6.5V18.5H7.5C7.77614 18.5 8 18.7239 8 19C8 19.2761 7.77614 19.5 7.5 19.5ZM11 18.5H11.5C12.0523 18.5 12.5 18.9477 12.5 19.5V20C12.5 20.5523 12.0523 21 11.5 21H11V18.5ZM10 17.5H11H11.5C12.6046 17.5 13.5 18.3954 13.5 19.5V20C13.5 21.1046 12.6046 22 11.5 22H11H10V21V18.5V17.5ZM14.5 17.5H15.5H17.5V18.5H15.5V19.5H17.5V20.5H15.5V22H14.5V20.5V19.5V18.5V17.5Z" fill="#F5222D"/>
<path opacity="0.5" fill-rule="evenodd" clip-rule="evenodd" d="M24.75 3H24.9216C25.0542 3 25.1814 3.05268 25.2751 3.14645L28.3536 6.22487C28.4473 6.31864 28.5 6.44582 28.5 6.57843V6.75H25C24.8619 6.75 24.75 6.63807 24.75 6.5V3ZM23.25 3H8C7.17157 3 6.5 3.67157 6.5 4.5V12.5H5V4.5C5 2.84315 6.34315 1.5 8 1.5H24.9216C25.452 1.5 25.9607 1.71071 26.3358 2.08579L29.4142 5.16421C29.7893 5.53929 30 6.04799 30 6.57843V27.5C30 29.1569 28.6569 30.5 27 30.5H8C6.34315 30.5 5 29.1569 5 27.5H6.5C6.5 28.3284 7.17157 29 8 29H27C27.8284 29 28.5 28.3284 28.5 27.5V8.25H25C24.0335 8.25 23.25 7.4665 23.25 6.5V3ZM22.5 15.25C22.5 14.8358 22.8358 14.5 23.25 14.5H25.75C26.1642 14.5 26.5 14.8358 26.5 15.25C26.5 15.6642 26.1642 16 25.75 16H23.25C22.8358 16 22.5 15.6642 22.5 15.25ZM22.5 19.75C22.5 19.3358 22.8358 19 23.25 19H25.75C26.1642 19 26.5 19.3358 26.5 19.75C26.5 20.1642 26.1642 20.5 25.75 20.5H23.25C22.8358 20.5 22.5 20.1642 22.5 19.75ZM23.25 23.5C22.8358 23.5 22.5 23.8358 22.5 24.25C22.5 24.6642 22.8358 25 23.25 25H25.75C26.1642 25 26.5 24.6642 26.5 24.25C26.5 23.8358 26.1642 23.5 25.75 23.5H23.25Z" fill="#797B7C"/>
</svg>
