<svg width="96" height="96" viewBox="0 0 96 96" fill="none" xmlns="http://www.w3.org/2000/svg">
<path opacity="0.5" fill-rule="evenodd" clip-rule="evenodd" d="M20.5 37.5001C19.6716 37.5001 19 38.1717 19 39.0001C19 39.8285 19.6716 40.5001 20.5 40.5001H36.5C37.3284 40.5001 38 39.8285 38 39.0001C38 38.1717 37.3284 37.5001 36.5 37.5001H20.5ZM59.5 37.5001C58.6716 37.5001 58 38.1717 58 39.0001C58 39.8285 58.6716 40.5001 59.5 40.5001H75.5C76.3284 40.5001 77 39.8285 77 39.0001C77 38.1717 76.3284 37.5001 75.5 37.5001H59.5ZM19 48.0001C19 47.1717 19.6716 46.5001 20.5 46.5001H36.5C37.3284 46.5001 38 47.1717 38 48.0001C38 48.8285 37.3284 49.5001 36.5 49.5001H20.5C19.6716 49.5001 19 48.8285 19 48.0001ZM59.5 46.5001C58.6716 46.5001 58 47.1717 58 48.0001C58 48.8285 58.6716 49.5001 59.5 49.5001H75.5C76.3284 49.5001 77 48.8285 77 48.0001C77 47.1717 76.3284 46.5001 75.5 46.5001H59.5ZM19 57.0001C19 56.1717 19.6716 55.5001 20.5 55.5001H36.5C37.3284 55.5001 38 56.1717 38 57.0001C38 57.8285 37.3284 58.5001 36.5 58.5001H20.5C19.6716 58.5001 19 57.8285 19 57.0001ZM59.5 55.5001C58.6716 55.5001 58 56.1717 58 57.0001C58 57.8285 58.6716 58.5001 59.5 58.5001H75.5C76.3284 58.5001 77 57.8285 77 57.0001C77 56.1717 76.3284 55.5001 75.5 55.5001H59.5Z" fill="white"/>
<path fill-rule="evenodd" clip-rule="evenodd" d="M9.99997 28.0001H38C42.6944 28.0001 46.5 31.8057 46.5 36.5001V71.5001C46.5 72.3285 47.1715 73.0001 48 73.0001C48.8284 73.0001 49.5 72.3285 49.5 71.5001V36.5001C49.5 31.8057 53.3055 28.0001 58 28.0001H86V63.5001C86 65.9854 83.9853 68.0001 81.5 68.0001H54.5C53.6715 68.0001 53 68.6717 53 69.5001C53 70.3285 53.6715 71.0001 54.5 71.0001H81.5C85.6421 71.0001 89 67.6423 89 63.5001V27.5001C89 26.1194 87.8807 25.0001 86.5 25.0001H58C53.7157 25.0001 49.9787 27.3429 48 30.8172C46.0213 27.3429 42.2842 25.0001 38 25.0001H9.49997C8.11925 25.0001 6.99997 26.1194 6.99997 27.5001V63.5001C6.99997 67.6423 10.3578 71.0001 14.5 71.0001H41.5C42.3284 71.0001 43 70.3285 43 69.5001C43 68.6717 42.3284 68.0001 41.5 68.0001H14.5C12.0147 68.0001 9.99997 65.9854 9.99997 63.5001V28.0001ZM8.19997 72.6001C7.70291 71.9374 6.76271 71.8031 6.09997 72.3001C5.43722 72.7972 5.30291 73.7374 5.79997 74.4001C7.59878 76.7985 10.8543 78.5001 14.5 78.5001H41.7268C41.8511 78.5001 41.9711 78.5465 42.0631 78.6302L45.6456 81.887C46.9806 83.1006 49.0193 83.1006 50.3543 81.887L53.9368 78.6302C54.0289 78.5465 54.1488 78.5001 54.2732 78.5001H81.5C85.1456 78.5001 88.4012 76.7985 90.2 74.4001C90.697 73.7374 90.5627 72.7972 89.9 72.3001C89.2372 71.8031 88.297 71.9374 87.8 72.6001C86.5988 74.2017 84.2543 75.5001 81.5 75.5001H54.2732C53.4025 75.5001 52.5631 75.8246 51.9188 76.4103L48.3363 79.6672C48.1456 79.8405 47.8543 79.8405 47.6636 79.6672L44.0811 76.4103C43.4369 75.8246 42.5974 75.5001 41.7268 75.5001H14.5C11.7456 75.5001 9.40115 74.2017 8.19997 72.6001Z" fill="white"/>
</svg>
