<svg width="97" height="96" viewBox="0 0 97 96" fill="none" xmlns="http://www.w3.org/2000/svg">
<circle cx="48.5" cy="48" r="30.5" stroke="#C9CCD1" stroke-width="3"/>
<path d="M60.2257 27.6347C56.7678 25.6266 52.771 24.4902 48.5 24.4902C35.5204 24.4902 24.9898 35.0208 24.9898 48.0004C24.9898 52.2519 26.1261 56.2388 28.1049 59.687C28.8004 60.9115 29.6135 62.0772 30.5245 63.1449C31.367 64.1539 32.2976 65.0747 33.2967 65.9172C34.3547 66.8282 35.5106 67.6413 36.7253 68.3368C40.1931 70.3547 44.2094 71.5106 48.5 71.5106C61.4796 71.5106 72.0102 60.98 72.0102 48.0004C72.0102 43.7 70.8543 39.6641 68.8167 36.1866" stroke="#C9CCD1" stroke-width="3" stroke-miterlimit="10" stroke-linecap="round"/>
<circle cx="65" cy="31.5" r="1.5" fill="#C9CCD1"/>
<path d="M60.0129 37.3431C60.3508 36.5214 59.5294 35.6999 58.7077 36.0379L44.5457 41.8623C43.805 42.1669 43.2169 42.755 42.9123 43.4956L37.0874 57.6574C36.7495 58.4791 37.5709 59.3005 38.3926 58.9626L52.5546 53.1382C53.2953 52.8336 53.8834 52.2455 54.188 51.5049L60.0129 37.3431Z" stroke="#C9CCD1" stroke-width="3" stroke-linejoin="round"/>
<circle cx="48.5" cy="48" r="2" fill="#C9CCD1"/>
<g opacity="0.5">
<path d="M30 48H32" stroke="#C9CCD1" stroke-width="3" stroke-linecap="round"/>
<path d="M36.5 35L37.9142 36.4142" stroke="#C9CCD1" stroke-width="3" stroke-linecap="round"/>
<path d="M62 60.5L60.5858 59.0858" stroke="#C9CCD1" stroke-width="3" stroke-linecap="round"/>
<path d="M48.5 29.5L48.5 31.5" stroke="#C9CCD1" stroke-width="3" stroke-linecap="round"/>
<path d="M65 48L67 48" stroke="#C9CCD1" stroke-width="3" stroke-linecap="round"/>
<path d="M48.5 64.5L48.5 66.5" stroke="#C9CCD1" stroke-width="3" stroke-linecap="round"/>
</g>
<path fill-rule="evenodd" clip-rule="evenodd" d="M52.49 16.2463C52.4966 16.1651 52.5 16.0829 52.5 16C52.5 14.3431 51.1569 13 49.5 13C47.8431 13 46.5 14.3431 46.5 16C46.5 16.0205 46.5002 16.041 46.5006 16.0614C45.4911 16.1237 44.4943 16.2327 43.5122 16.3864C43.5041 16.2587 43.5 16.1298 43.5 16C43.5 12.6863 46.1863 10 49.5 10C52.8137 10 55.5 12.6863 55.5 16C55.5 16.2566 55.4839 16.5093 55.4527 16.7574C54.481 16.5421 53.4927 16.371 52.49 16.2463Z" fill="#C9CCD1"/>
</svg>
