<svg width="96" height="96" viewBox="0 0 96 96" fill="none" xmlns="http://www.w3.org/2000/svg">
<path opacity="0.5" d="M41.8905 25.3079C38.0254 26.3331 34.3958 28.3557 31.3757 31.3758C22.1977 40.5537 22.1977 55.4463 31.3757 64.6242C34.3819 67.6304 38.0046 69.6461 41.842 70.6851C43.1997 71.0592 44.5989 71.3085 45.9981 71.4194C47.3072 71.5371 48.6164 71.5302 49.9186 71.4194C51.3109 71.3155 52.7032 71.073 54.0539 70.7059C57.9329 69.6808 61.5902 67.6581 64.6241 64.6242C73.8021 55.4463 73.8021 40.5537 64.6241 31.3758C61.5833 28.3349 57.9121 26.2985 54.0123 25.2802" stroke="#C9CCD1" stroke-width="3" stroke-miterlimit="10" stroke-linecap="round"/>
<circle opacity="0.5" cx="47.9997" cy="24.6655" r="1.5" transform="rotate(-45 47.9997 24.6655)" fill="#C9CCD1"/>
<path fill-rule="evenodd" clip-rule="evenodd" d="M53.4833 46.9233L48.0497 33.8969L42.6156 46.9232C42.4614 47.2927 42.4614 47.7086 42.6155 48.0782L48.0492 61.1045L53.4833 48.0783C53.6375 47.7087 53.6375 47.2929 53.4833 46.9233ZM50.357 31.6357C49.5018 29.5857 46.5976 29.5857 45.7424 31.6357L39.8468 45.7682C39.3843 46.8768 39.3843 48.1244 39.8468 49.2331L45.7419 63.3658L45.7419 63.3658C46.5971 65.4158 49.5013 65.4158 50.3565 63.3658L56.252 49.2333C56.7145 48.1246 56.7146 46.8771 56.2521 45.7684L50.357 31.6357L50.357 31.6357ZM49.7817 49.3036C50.5628 48.5226 50.5628 47.2562 49.7817 46.4752C49.0007 45.6941 47.7343 45.6941 46.9533 46.4752C46.1723 47.2562 46.1723 48.5226 46.9533 49.3036C47.7343 50.0847 49.0007 50.0847 49.7817 49.3036Z" fill="#C9CCD1"/>
</svg>
