<svg width="96" height="96" viewBox="0 0 96 96" fill="none" xmlns="http://www.w3.org/2000/svg">
<path fill-rule="evenodd" clip-rule="evenodd" d="M13 25.0001H83C84.1046 25.0001 85 25.8956 85 27.0001C85 28.1047 84.1046 29.0001 83 29.0001H13C11.8954 29.0001 11 28.1047 11 27.0001C11 25.8956 11.8954 25.0001 13 25.0001ZM8 27.0001C8 24.2387 10.2386 22.0001 13 22.0001H83C85.7614 22.0001 88 24.2387 88 27.0001C88 29.7615 85.7614 32.0001 83 32.0001H13C10.2386 32.0001 8 29.7615 8 27.0001ZM13 71.0001V35.0001H16V71.0001H80V35.0001H83V71.0001C83 72.657 81.6569 74.0001 80 74.0001H50V79.0001H65.5C66.3284 79.0001 67 79.6717 67 80.5001C67 81.3285 66.3284 82.0001 65.5 82.0001H30.5C29.6716 82.0001 29 81.3285 29 80.5001C29 79.6717 29.6716 79.0001 30.5 79.0001H47V74.0001H16C14.3431 74.0001 13 72.657 13 71.0001Z" fill="white"/>
<path opacity="0.5" fill-rule="evenodd" clip-rule="evenodd" d="M44 45.5001C44 46.8808 42.8807 48.0001 41.5 48.0001C40.1193 48.0001 39 46.8808 39 45.5001C39 44.1194 40.1193 43.0001 41.5 43.0001C42.8807 43.0001 44 44.1194 44 45.5001ZM44.1817 50.3032C43.3884 50.7471 42.4737 51.0001 41.5 51.0001C40.396 51.0001 39.368 50.6748 38.5065 50.1149L32.7111 55.9103C32.8978 56.4046 33 56.9404 33 57.5001C33 59.9854 30.9853 62.0001 28.5 62.0001C26.0147 62.0001 24 59.9854 24 57.5001C24 55.0148 26.0147 53.0001 28.5 53.0001C29.3266 53.0001 30.1012 53.223 30.7669 53.6119L36.5268 47.852C36.189 47.1389 36 46.3416 36 45.5001C36 42.4626 38.4624 40.0001 41.5 40.0001C44.5376 40.0001 47 42.4626 47 45.5001C47 46.4739 46.747 47.3885 46.303 48.1818L52.212 54.0908C53.1291 53.4057 54.2672 53.0001 55.5 53.0001C56.4737 53.0001 57.3884 53.2532 58.1817 53.6971L63.8069 48.0719C63.2983 47.343 63 46.4564 63 45.5001C63 43.0148 65.0147 41.0001 67.5 41.0001C69.9853 41.0001 72 43.0148 72 45.5001C72 47.9854 69.9853 50.0001 67.5 50.0001C67.0796 50.0001 66.6727 49.9425 66.2868 49.8347L60.303 55.8184C60.747 56.6118 61 57.5264 61 58.5001C61 61.5377 58.5376 64.0001 55.5 64.0001C52.4624 64.0001 50 61.5377 50 58.5001C50 57.7935 50.1332 57.118 50.376 56.4974L44.1817 50.3032ZM67.5 47.0001C68.3284 47.0001 69 46.3285 69 45.5001C69 44.6717 68.3284 44.0001 67.5 44.0001C66.6716 44.0001 66 44.6717 66 45.5001C66 46.3285 66.6716 47.0001 67.5 47.0001ZM28.5 59.0001C29.3284 59.0001 30 58.3285 30 57.5001C30 56.6717 29.3284 56.0001 28.5 56.0001C27.6716 56.0001 27 56.6717 27 57.5001C27 58.3285 27.6716 59.0001 28.5 59.0001ZM55.5 61.0001C56.8807 61.0001 58 59.8808 58 58.5001C58 57.1194 56.8807 56.0001 55.5 56.0001C54.1193 56.0001 53 57.1194 53 58.5001C53 59.8808 54.1193 61.0001 55.5 61.0001Z" fill="white"/>
</svg>
