<svg width="96" height="96" viewBox="0 0 96 96" fill="none" xmlns="http://www.w3.org/2000/svg">
<path fill-rule="evenodd" clip-rule="evenodd" d="M76 27.0001H10V72.0001H62V75.0001H10H7H4V76.0001C4 77.657 5.34315 79.0001 7 79.0001H62V82.0001H7C3.68629 82.0001 1 79.3138 1 76.0001V75.0001V72.0001H4H7V27.0001C7 25.3433 8.34315 24.0001 10 24.0001H76C77.6569 24.0001 79 25.3433 79 27.0001V37.0001H76V27.0001ZM92 43.0001H68V68.0001H92V43.0001ZM92 71.0001H68V79.0001H92V71.0001ZM68 40.0001C66.3431 40.0001 65 41.3433 65 43.0001V79.0001C65 80.657 66.3431 82.0001 68 82.0001H92C93.6569 82.0001 95 80.657 95 79.0001V43.0001C95 41.3433 93.6569 40.0001 92 40.0001H68ZM76 47.5001C76 46.6717 76.6716 46.0001 77.5 46.0001H82.5C83.3284 46.0001 84 46.6717 84 47.5001C84 48.3285 83.3284 49.0001 82.5 49.0001H77.5C76.6716 49.0001 76 48.3285 76 47.5001ZM80 77.0001C81.1046 77.0001 82 76.1047 82 75.0001C82 73.8956 81.1046 73.0001 80 73.0001C78.8954 73.0001 78 73.8956 78 75.0001C78 76.1047 78.8954 77.0001 80 77.0001Z" fill="white"/>
<path opacity="0.5" fill-rule="evenodd" clip-rule="evenodd" d="M22.5 40.0001C21.6716 40.0001 21 40.6717 21 41.5001C21 42.3285 21.6716 43.0001 22.5 43.0001H54.5C55.3284 43.0001 56 42.3285 56 41.5001C56 40.6717 55.3284 40.0001 54.5 40.0001H22.5ZM22.5 51.0001C21.6716 51.0001 21 51.6717 21 52.5001C21 53.3285 21.6716 54.0001 22.5 54.0001H42.5C43.3284 54.0001 44 53.3285 44 52.5001C44 51.6717 43.3284 51.0001 42.5 51.0001H22.5Z" fill="white"/>
</svg>
