<svg width="128" height="128" viewBox="0 0 128 128" fill="none" xmlns="http://www.w3.org/2000/svg">
<path fill-rule="evenodd" clip-rule="evenodd" d="M32 12.667C28.6863 12.667 26 15.3533 26 18.667V104C26 107.314 28.6863 110 32 110H74.6667V106H32C30.8954 106 30 105.105 30 104V18.667C30 17.5624 30.8954 16.667 32 16.667H96C97.1046 16.667 98 17.5624 98 18.667V76.0003H102V18.667C102 15.3533 99.3137 12.667 96 12.667H32Z" fill="#C9CCD1"/>
<circle cx="64" cy="40" r="6" stroke="#C9CCD1" stroke-width="4"/>
<mask id="path-3-inside-1" fill="white">
<path fill-rule="evenodd" clip-rule="evenodd" d="M53.3856 55.0371C53.239 54.9234 53.1509 54.7495 53.1509 54.5639V54.5639C53.1509 49.4658 58.0049 45.333 63.9927 45.333C69.9804 45.333 74.8344 49.4658 74.8344 54.5639V54.5639C74.8344 54.7572 74.7424 54.9383 74.5894 55.0565C71.6607 57.3196 67.9876 58.6662 64 58.6662C60.0011 58.6662 56.3184 57.312 53.3856 55.0371Z"/>
</mask>
<path d="M74.5894 55.0565L77.0353 58.2216L74.5894 55.0565ZM53.3856 55.0371L50.934 58.1978L53.3856 55.0371ZM57.1509 54.5639C57.1509 52.2542 59.5865 49.333 63.9927 49.333V41.333C56.4233 41.333 49.1509 46.6775 49.1509 54.5639H57.1509ZM63.9927 49.333C68.3988 49.333 70.8344 52.2542 70.8344 54.5639H78.8344C78.8344 46.6775 71.562 41.333 63.9927 41.333V49.333ZM72.1436 51.8914C69.8906 53.6324 67.0717 54.6662 64 54.6662V62.6662C68.9035 62.6662 73.4308 61.0069 77.0353 58.2216L72.1436 51.8914ZM64 54.6662C60.9196 54.6662 58.0934 53.6265 55.8372 51.8765L50.934 58.1978C54.5434 60.9975 59.0825 62.6662 64 62.6662V54.6662ZM70.8344 54.5639C70.8344 53.4742 71.3519 52.5031 72.1436 51.8914L77.0353 58.2216C78.1329 57.3734 78.8344 56.0403 78.8344 54.5639H70.8344ZM49.1509 54.5639C49.1509 56.0281 49.8446 57.3527 50.934 58.1978L55.8372 51.8765C56.6334 52.494 57.1509 53.4709 57.1509 54.5639H49.1509Z" fill="#C9CCD1" mask="url(#path-3-inside-1)"/>
<circle cx="63.9998" cy="41.3333" r="15.3333" stroke="#C9CCD1" stroke-width="4"/>
<path opacity="0.5" d="M48.6665 80H71.3332" stroke="#C9CCD1" stroke-width="4" stroke-linecap="round"/>
<path opacity="0.5" d="M78.6665 80H79.3332" stroke="#C9CCD1" stroke-width="4" stroke-linecap="round"/>
<line opacity="0.5" x1="48.6665" y1="68.667" x2="79.3332" y2="68.667" stroke="#C9CCD1" stroke-width="4" stroke-linecap="round"/>
<path opacity="0.5" d="M48.6665 91.333H61.9998" stroke="#C9CCD1" stroke-width="4" stroke-linecap="round"/>
<circle cx="95.9998" cy="97.3333" r="15.3333" stroke="#C9CCD1" stroke-width="4"/>
<path d="M96 91.333L96 96.6663" stroke="#C9CCD1" stroke-width="4" stroke-linecap="round"/>
<circle cx="96" cy="103.333" r="2" fill="#C9CCD1"/>
</svg>
