<svg width="16" height="16" viewBox="0 0 16 16" fill="none" xmlns="http://www.w3.org/2000/svg">
<mask id="mask0" mask-type="alpha" maskUnits="userSpaceOnUse" x="1" y="1" width="14" height="14">
<path fill-rule="evenodd" clip-rule="evenodd" d="M1.05817 8.00751C1.05817 11.8594 4.1717 14.9823 8.01274 14.9823C11.8535 14.9823 14.9672 11.8594 14.9672 8.00751C14.9672 4.15526 11.8535 1.03252 8.01274 1.03252C4.1717 1.03252 1.05817 4.15526 1.05817 8.00751Z" fill="white"/>
</mask>
<g mask="url(#mask0)">
<path fill-rule="evenodd" clip-rule="evenodd" d="M0.111572 12.8629H15.9759V0.501595H0.111572V12.8629Z" fill="#FF5722"/>
<path fill-rule="evenodd" clip-rule="evenodd" d="M18.9092 5.57201C17.6686 5.06426 16.4737 4.82089 15.47 4.71416C15.2775 4.68906 14.8045 4.63828 14.1407 4.64068C13.477 4.63828 13.004 4.68906 12.8115 4.71416C11.8078 4.82089 10.6131 5.06426 9.37237 5.57201C8.17714 6.06127 7.02417 6.305 6.04383 6.41762V6.41606C6.04383 6.41606 6.0309 6.41834 6.006 6.42182C5.48488 6.48018 5.01333 6.50155 4.61144 6.50323C4.20944 6.50155 3.73801 6.48018 3.21677 6.42182C3.19187 6.41834 3.17906 6.41606 3.17906 6.41606V6.41762C2.19872 6.305 1.04575 6.06127 -0.149602 5.57201C-1.3902 5.06426 -2.58495 4.82089 -3.58876 4.71416C-3.78126 4.68906 -4.25413 4.63828 -4.91795 4.64068C-5.58177 4.63828 -6.05464 4.68906 -6.24714 4.71416C-7.25095 4.82089 -8.4457 5.06426 -9.6863 5.57201C-12.9404 6.90412 -15.8797 6.41606 -15.8797 6.41606V15.397H25.1026V6.41606C25.1026 6.41606 22.1633 6.90412 18.9092 5.57201Z" fill="#00A54A"/>
<path fill-rule="evenodd" clip-rule="evenodd" d="M25.8436 5.57201C24.603 5.06426 23.4081 4.82089 22.4044 4.71416C22.2119 4.68906 21.7389 4.63828 21.0752 4.64068C20.4114 4.63828 19.9384 4.68906 19.7459 4.71416C18.7423 4.82089 17.5475 5.06426 16.3069 5.57201C15.1115 6.06127 13.9586 6.305 12.9782 6.41762V6.41606C12.9782 6.41606 12.9653 6.41834 12.9404 6.42182C12.4193 6.48018 11.9477 6.50155 11.5458 6.50323C11.1438 6.50155 10.6724 6.48018 10.1513 6.42182C10.1264 6.41834 10.1134 6.41606 10.1134 6.41606V6.41762C9.1331 6.305 7.98013 6.06127 6.78479 5.57201C5.54418 5.06426 4.34943 4.82089 3.34575 4.71416C3.15313 4.68906 2.68025 4.63828 2.01644 4.64068C1.35262 4.63828 0.879747 4.68906 0.687246 4.71416C-0.316441 4.82089 -1.51131 5.06426 -2.75191 5.57201C-6.00599 6.90412 -8.94534 6.41606 -8.94534 6.41606V15.397H32.037V6.41606C32.037 6.41606 29.0977 6.90412 25.8436 5.57201Z" fill="#00E8FF"/>
<path fill-rule="evenodd" clip-rule="evenodd" d="M-0.261983 2.83773C0.978618 3.34548 2.17349 3.58885 3.17718 3.69559C3.36968 3.72068 3.84267 3.77135 4.50648 3.76895C5.17018 3.77135 5.64317 3.72068 5.83568 3.69559C6.83936 3.58885 8.03411 3.34548 9.27483 2.83773C10.4701 2.34835 11.623 2.10462 12.6034 1.99212V1.99356C12.6034 1.99356 12.6163 1.9914 12.6412 1.9878C13.1624 1.92957 13.6339 1.9082 14.0358 1.9064C14.4378 1.9082 14.9092 1.92957 15.4304 1.9878C15.4553 1.9914 15.4681 1.99356 15.4681 1.99356V1.99212C16.4485 2.10462 17.6015 2.34835 18.7968 2.83773C20.0374 3.34548 21.2323 3.58885 22.236 3.69559C22.4285 3.72068 22.9013 3.77135 23.5652 3.76895C24.229 3.77135 24.7018 3.72068 24.8943 3.69559C25.8982 3.58885 27.0929 3.34548 28.3335 2.83773C31.5876 1.50551 34.5269 1.99356 34.5269 1.99356V-6.98734H-6.45541V1.99356C-6.45541 1.99356 -3.51606 1.50551 -0.261983 2.83773Z" fill="#E41E26"/>
<path fill-rule="evenodd" clip-rule="evenodd" d="M19.4248 8.55425C18.1842 8.0465 16.9893 7.80313 15.9856 7.6964C15.7931 7.6713 15.3201 7.62052 14.6564 7.62304C13.9926 7.62052 13.5196 7.6713 13.3271 7.6964C12.3235 7.80313 11.1287 8.0465 9.88794 8.55425C8.69271 9.04363 7.53974 9.28724 6.55939 9.39986V9.39842C6.55939 9.39842 6.54646 9.40058 6.52156 9.40419C6.00044 9.46242 5.52889 9.48379 5.12701 9.48559C4.72501 9.48379 4.25357 9.46242 3.73245 9.40419C3.70755 9.40058 3.69462 9.39842 3.69462 9.39842V9.39986C2.71428 9.28724 1.56131 9.04363 0.365962 8.55425C-0.87464 8.0465 -2.06939 7.80313 -3.0732 7.6964C-3.2657 7.6713 -3.73857 7.62052 -4.40239 7.62304C-5.0662 7.62052 -5.53908 7.6713 -5.73158 7.6964C-6.73526 7.80313 -7.93013 8.0465 -9.17074 8.55425C-12.4248 9.88636 -15.3642 9.39842 -15.3642 9.39842V18.3792H25.6182V9.39842C25.6182 9.39842 22.6788 9.88636 19.4248 8.55425Z" fill="#478EF7"/>
<path fill-rule="evenodd" clip-rule="evenodd" d="M25.7526 11.8314C24.512 11.3235 23.3171 11.0801 22.3134 10.9735C22.1209 10.9484 21.648 10.8977 20.9841 10.9001C20.3204 10.8977 19.8474 10.9484 19.6549 10.9735C18.6513 11.0801 17.4565 11.3235 16.2158 11.8314C15.0206 12.3206 13.8676 12.5644 12.8872 12.677V12.6754C12.8872 12.6754 12.8743 12.6776 12.8494 12.6812C12.3282 12.7394 11.8567 12.7608 11.4549 12.7626C11.0529 12.7608 10.5814 12.7394 10.0602 12.6812C10.0353 12.6776 10.0225 12.6754 10.0225 12.6754V12.677C9.04213 12.5644 7.88916 12.3206 6.69381 11.8314C5.45321 11.3235 4.25834 11.0801 3.25465 10.9735C3.06215 10.9484 2.58928 10.8977 1.92546 10.9001C1.26165 10.8977 0.788774 10.9484 0.596273 10.9735C-0.407533 11.0801 -1.60228 11.3235 -2.84289 11.8314C-6.09697 13.1635 -9.03632 12.6754 -9.03632 12.6754V21.6563H31.946V12.6754C31.946 12.6754 29.0067 13.1635 25.7526 11.8314Z" fill="#000084"/>
</g>
</svg>
