<svg width="16" height="16" viewBox="0 0 16 16" fill="none" xmlns="http://www.w3.org/2000/svg">
<path fill-rule="evenodd" clip-rule="evenodd" d="M10.3945 11.4177C10.3085 12.122 9.87868 12.6862 9.21312 12.9687C8.84264 13.1259 8.34604 13.2106 7.95239 13.1839C7.34019 13.1607 6.76469 13.0125 6.23462 12.7422C6.0416 12.6438 5.75868 12.4494 5.54544 12.2716C5.49684 12.2312 5.47181 12.195 5.51854 12.1292C5.5684 12.0544 5.76563 11.7695 5.79664 11.7225C5.83861 11.6585 5.90742 11.6553 5.9706 11.7047C5.97931 11.7114 6.04341 11.7611 6.05634 11.7707C6.56669 12.1677 7.22497 12.4659 7.95644 12.4938C8.87896 12.4813 9.54826 12.0705 9.66769 11.4343C9.7994 10.7332 9.23996 10.1319 8.1625 9.79639C7.81997 9.68978 6.95886 9.3473 6.79981 9.2546C6.04916 8.81728 5.69956 8.24365 5.74936 7.53743C5.82563 6.5588 6.73911 5.82552 7.89831 5.82064C8.44855 5.81955 8.96454 5.94074 9.42432 6.13316C9.59346 6.20394 9.90865 6.37274 10.0211 6.45613C10.0996 6.51338 10.0936 6.57749 10.0626 6.62712C10.0167 6.70312 9.88055 6.91509 9.82565 7.00341C9.7856 7.064 9.73596 7.07096 9.66556 7.02658C9.0727 6.63107 8.46296 6.49695 7.91415 6.48605C7.12224 6.50166 6.52511 6.96906 6.48588 7.60991C6.47552 8.1888 6.91826 8.6087 7.85815 8.92937C9.79858 9.54864 10.5337 10.2766 10.3945 11.4177ZM7.99962 1.35125C9.25558 1.35125 10.2795 2.53506 10.3273 4.01686H5.67184C5.71972 2.53506 6.7436 1.35125 7.99962 1.35125ZM14.5 4.29545C14.5 4.14156 14.3752 4.01686 14.2213 4.01686H14.2171H11.2038C11.1297 2.06032 9.72347 0.500122 7.99962 0.500122C6.27571 0.500122 4.86941 2.06032 4.79534 4.01686H1.7735V4.01691C1.62201 4.01965 1.5 4.14331 1.5 4.29545C1.5 4.30274 1.50027 4.30992 1.50082 4.31704V4.3171L1.92948 13.7474L1.93584 13.8656C2.00131 14.5218 2.48082 15.0504 3.1329 15.0747H3.13307L12.72 15.0762L12.7681 15.0758C13.4315 15.0578 13.9689 14.5219 14.0256 13.8576L14.0299 13.7774L14.4997 4.30997L14.4996 4.30981C14.4999 4.30504 14.5 4.30028 14.5 4.29545Z" fill="#EE4D2D"/>
</svg>
