<svg width="16" height="16" viewBox="0 0 16 16" fill="none" xmlns="http://www.w3.org/2000/svg">
<path fill-rule="evenodd" clip-rule="evenodd" d="M13 8C13 10.7614 10.7614 13 8 13C5.23858 13 3 10.7614 3 8C3 5.23858 5.23858 3 8 3C10.7614 3 13 5.23858 13 8ZM14.5 8C14.5 11.5899 11.5899 14.5 8 14.5C4.41015 14.5 1.5 11.5899 1.5 8C1.5 4.41015 4.41015 1.5 8 1.5C11.5899 1.5 14.5 4.41015 14.5 8ZM9.96667 7.6L7.3 5.6C6.97038 5.35279 6.5 5.58798 6.5 6V10C6.5 10.412 6.97038 10.6472 7.3 10.4L9.96667 8.4C10.2333 8.2 10.2333 7.8 9.96667 7.6Z" fill="#017DE9"/>
</svg>
