<svg width="16" height="16" viewBox="0 0 16 16" fill="none" xmlns="http://www.w3.org/2000/svg">
<path fill-rule="evenodd" clip-rule="evenodd" d="M1 2.75C1 2.33579 1.33579 2 1.75 2H14.25C14.6642 2 15 2.33579 15 2.75C15 3.16421 14.6642 3.5 14.25 3.5H14V10.5H14.25C14.6642 10.5 15 10.8358 15 11.25C15 11.6642 14.6642 12 14.25 12H12L12.5 12.5C12.7761 12.7761 12.7761 13.2239 12.5 13.5C12.2239 13.7761 11.7761 13.7761 11.5 13.5L10 12H6L4.5 13.5C4.22386 13.7761 3.77614 13.7761 3.5 13.5C3.22386 13.2239 3.22386 12.7761 3.5 12.5L4 12H1.75C1.33579 12 1 11.6642 1 11.25C1 10.8358 1.33579 10.5 1.75 10.5H2V3.5H1.75C1.33579 3.5 1 3.16421 1 2.75ZM3.5 3.5H12.5V10.5H3.5V3.5ZM11.2803 6.28033C11.5732 5.98744 11.5732 5.51256 11.2803 5.21967C10.9874 4.92678 10.5126 4.92678 10.2197 5.21967L8.75 6.68934L7.78033 5.71967C7.48744 5.42678 7.01256 5.42678 6.71967 5.71967L4.71967 7.71967C4.42678 8.01256 4.42678 8.48744 4.71967 8.78033C5.01256 9.07322 5.48744 9.07322 5.78033 8.78033L7.25 7.31066L8.21967 8.28033C8.51256 8.57322 8.98744 8.57322 9.28033 8.28033L11.2803 6.28033Z" fill="#017DE9"/>
</svg>
