<svg width="16" height="16" viewBox="0 0 16 16" fill="none" xmlns="http://www.w3.org/2000/svg">
<path fill-rule="evenodd" clip-rule="evenodd" d="M3.5 12.5V3.5H10.3787L12.5 5.62132V12.5H3.5ZM14 5L11 2H3C2.44772 2 2 2.44772 2 3V13C2 13.5523 2.44772 14 3 14H13C13.5523 14 14 13.5523 14 13V5ZM5 7.75C5 7.33579 5.33579 7 5.75 7H10.25C10.6642 7 11 7.33579 11 7.75C11 8.16421 10.6642 8.5 10.25 8.5H5.75C5.33579 8.5 5 8.16421 5 7.75ZM5 10.25C5 9.83579 5.33579 9.5 5.75 9.5H10.25C10.6642 9.5 11 9.83579 11 10.25C11 10.6642 10.6642 11 10.25 11H5.75C5.33579 11 5 10.6642 5 10.25Z" fill="#017DE9"/>
</svg>
