<svg width="16" height="16" viewBox="0 0 16 16" fill="none" xmlns="http://www.w3.org/2000/svg">
<path fill-rule="evenodd" clip-rule="evenodd" d="M13.7501 2H11.6037C11.381 2 11.2694 2.26929 11.4269 2.42678L11.9298 2.92969L9.31839 5.16805L6.20626 4.27887C5.99469 4.21842 5.76726 4.25393 5.58419 4.37598L2.16804 6.75192C1.82339 6.98169 1.73026 7.44734 1.96003 7.79199C2.18979 8.13663 2.65544 8.22976 3.00009 8L6.12766 5.81644L9.29417 6.72116C9.53635 6.79035 9.79708 6.73337 9.98831 6.56946L12.9936 3.99348L13.5734 4.57322C13.7309 4.73071 14.0001 4.61917 14.0001 4.39645V2.25C14.0001 2.11193 13.8882 2 13.7501 2ZM12 7.25C12 6.83579 12.3358 6.5 12.75 6.5C13.1643 6.5 13.5 6.83579 13.5 7.25V12.5H13.75C14.1643 12.5 14.5 12.8358 14.5 13.25C14.5 13.6642 14.1643 14 13.75 14H2.75005C2.33583 14 2.00005 13.6642 2.00005 13.25C2.00005 12.8358 2.33583 12.5 2.75005 12.5H3.00005V9.75C3.00005 9.33579 3.33583 9 3.75005 9C4.16426 9 4.50005 9.33579 4.50005 9.75V12.5H7.50005V9.25C7.50005 8.83579 7.83583 8.5 8.25005 8.5C8.66426 8.5 9.00005 8.83579 9.00005 9.25V12.5H12V7.25Z" fill="#017DE9"/>
</svg>
