<svg width="83" height="32" viewBox="0 0 83 32" fill="none" xmlns="http://www.w3.org/2000/svg">
<path d="M50.6813 19.0584C50.6813 16.4507 48.2197 15.5245 46.2456 14.769C44.8564 14.2572 43.7841 13.8429 43.7841 12.9655C43.7841 12.1612 44.3934 11.6494 45.3439 11.6494C46.1238 11.6494 46.9524 12.0394 47.6835 12.3562C48.171 12.5756 48.634 12.7949 48.9021 12.7949C49.7551 12.7949 50.3157 11.9906 50.3157 11.2351C50.3157 9.50474 47.5617 8.57861 45.5632 8.57861C42.5167 8.57861 40.3964 10.4065 40.3964 12.9899C40.3964 15.622 42.8579 16.5725 44.8564 17.3037C46.2212 17.8155 47.2936 18.2298 47.2936 19.0828C47.2936 20.0333 46.7574 20.4232 45.5145 20.4232C44.4665 20.4232 43.7597 20.0333 43.1504 19.6677C42.6142 19.3509 42.0781 19.0584 41.42 19.0584C40.4452 19.0584 39.9333 20.1552 39.9333 20.6182C39.9333 22.2511 43.1748 23.4697 45.2707 23.4697C48.4391 23.4941 50.6813 21.6662 50.6813 19.0584Z" fill="#000084"/>
<path d="M59.4795 8.57861C56.0918 8.57861 52.5823 11.3814 52.5823 16.0607C52.5823 20.4476 55.5556 23.4941 59.8207 23.4941C62.8184 23.4941 66.0842 21.8368 66.0842 20.3501C66.0842 19.5946 65.3774 18.8635 64.6706 18.8635C64.2807 18.8635 63.8176 19.1315 63.2571 19.4484C62.4284 19.9114 61.4292 20.472 60.1619 20.472C57.9684 20.472 56.4574 19.3021 56.1893 17.4255C56.1893 17.3524 56.1893 17.3037 56.238 17.2549C56.2868 17.2062 56.3355 17.1818 56.4086 17.1818H64.89C65.9623 17.1818 66.4254 16.7187 66.4254 15.622C66.401 12.2831 63.5495 8.57861 59.4795 8.57861ZM62.794 14.8665C62.7453 14.9152 62.6965 14.9396 62.6234 14.9396H56.3111C56.238 14.9396 56.1893 14.9152 56.1405 14.8665C56.0918 14.8178 56.0918 14.769 56.0918 14.6959C56.3111 12.7949 57.7003 11.4788 59.4551 11.4788C61.283 11.4788 62.599 12.7218 62.8427 14.6959C62.8671 14.7446 62.8427 14.8178 62.794 14.8665Z" fill="#000084"/>
<path d="M80.6096 8.74975C79.7322 8.74975 79.0255 9.38341 78.928 10.212C78.928 10.3095 78.8549 10.3826 78.7574 10.407C78.6599 10.4314 78.5868 10.407 78.538 10.3339C77.7581 9.23718 76.4421 8.60352 74.931 8.60352C71.3728 8.60352 68.57 11.8937 68.57 16.0856C68.57 20.3994 71.2509 23.519 74.931 23.519C76.3689 23.519 77.5388 22.9341 78.538 21.7398C78.5868 21.6667 78.6599 21.6424 78.7574 21.6667C78.8305 21.6911 78.9036 21.7398 78.928 21.813C79.2204 22.9097 79.6835 23.324 80.634 23.324C82.1938 23.324 82.3156 22.2516 82.3156 20.9356V11.1382C82.2913 9.8221 82.1694 8.74975 80.6096 8.74975ZM75.4672 20.2775C73.2494 20.2775 72.1039 18.1572 72.1039 16.0612C72.1039 14.014 73.1519 11.7962 75.4672 11.7962C77.6119 11.7962 78.7574 13.9409 78.7574 16.0612C78.7574 18.1572 77.6363 20.2775 75.4672 20.2775Z" fill="#000084"/>
<path d="M44.0278 27.6371C44.2959 27.6371 44.5396 27.7833 44.6371 28.0514H45.027C44.9052 27.5639 44.4665 27.2715 44.0034 27.2715C43.4185 27.2715 42.9554 27.7345 42.9554 28.3195C42.9554 28.88 43.3698 29.3674 44.0034 29.3674C44.4909 29.3674 44.8808 29.0506 45.0027 28.6119H44.6127C44.5396 28.8069 44.3203 29.0019 44.0034 29.0019C43.6135 29.0019 43.321 28.7094 43.321 28.2951C43.321 28.1001 43.3941 27.9051 43.516 27.7833C43.6866 27.6858 43.8328 27.6371 44.0278 27.6371Z" fill="#000084"/>
<path d="M45.2951 28.3195C45.2951 28.8556 45.6851 29.3674 46.3431 29.3674C47.0011 29.3674 47.3911 28.8556 47.3911 28.3195C47.3911 27.7833 47.0011 27.2715 46.3431 27.2715C45.6851 27.2715 45.2951 27.7833 45.2951 28.3195ZM47.0255 28.3195C47.0255 28.7094 46.733 29.0019 46.3431 29.0019C45.9531 29.0019 45.6607 28.7094 45.6607 28.3195C45.6607 27.9295 45.9531 27.6371 46.3431 27.6371C46.733 27.6371 47.0255 27.9295 47.0255 28.3195Z" fill="#000084"/>
<path d="M49.6089 29.3187V28.1489C49.6089 27.7345 49.4383 27.2715 48.8047 27.2715C48.4635 27.2715 48.2198 27.4421 48.1466 27.6371V27.3202H47.7811V29.2943H48.171V28.1976C48.171 27.8564 48.3416 27.6127 48.7072 27.6127C49.0971 27.6127 49.219 27.8564 49.219 28.222V29.2943H49.6089V29.3187Z" fill="#000084"/>
<path d="M51.9242 29.3187V28.1489C51.9242 27.7345 51.7536 27.2715 51.1199 27.2715C50.7787 27.2715 50.535 27.4421 50.4619 27.6371V27.3202H50.0963V29.2943H50.4863V28.1976C50.4863 27.8564 50.6569 27.6127 51.0224 27.6127C51.4124 27.6127 51.5342 27.8564 51.5342 28.222V29.2943H51.9242V29.3187Z" fill="#000084"/>
<path d="M54.0445 27.5639C53.8495 27.369 53.6058 27.2715 53.3134 27.2715C52.7041 27.2715 52.2654 27.7589 52.2654 28.3195C52.2654 28.8313 52.6553 29.3674 53.3134 29.3674C53.5083 29.3674 53.7033 29.3187 53.8739 29.1968C54.0445 29.0994 54.1907 28.9288 54.2639 28.7094H53.8739C53.7764 28.9288 53.5571 29.0506 53.3134 29.0506C53.0209 29.0506 52.6553 28.8556 52.6553 28.4413H54.337C54.3857 28.1245 54.2882 27.8077 54.0445 27.5639ZM52.6553 28.1489C52.6797 27.8808 52.9234 27.5883 53.3134 27.5883C53.6789 27.5883 53.947 27.8808 53.9714 28.1489H52.6553Z" fill="#000084"/>
<path d="M55.653 27.6371C55.9211 27.6371 56.1649 27.7833 56.2623 28.0514H56.6523C56.5304 27.5639 56.0917 27.2715 55.6287 27.2715C55.0438 27.2715 54.5807 27.7345 54.5807 28.3195C54.5807 28.88 54.995 29.3674 55.6287 29.3674C56.1161 29.3674 56.5061 29.0506 56.6279 28.6119H56.238C56.1648 28.8069 55.9455 29.0019 55.6287 29.0019C55.2387 29.0019 54.9463 28.7094 54.9463 28.2951C54.9463 28.1001 55.0194 27.9051 55.1412 27.7833C55.3118 27.6858 55.4581 27.6371 55.653 27.6371Z" fill="#000084"/>
<path d="M57.5541 29.319V27.6374H57.944V27.3449H57.5541V26.6138H57.1641V27.3449H56.8229V27.6374H57.1641V29.319H57.5541Z" fill="#000084"/>
<path d="M58.602 26.6138H58.2121V27.0037H58.602V26.6138Z" fill="#000084"/>
<path d="M58.602 27.3452H58.2121V29.3193H58.602V27.3452Z" fill="#000084"/>
<path d="M60.9173 29.3187V28.1489C60.9173 27.7345 60.7467 27.2715 60.1131 27.2715C59.7719 27.2715 59.5282 27.4421 59.455 27.6371V27.3202H59.0895V29.2943H59.4794V28.1976C59.4794 27.8564 59.65 27.6127 60.0156 27.6127C60.4055 27.6127 60.5274 27.8564 60.5274 28.222V29.2943H60.9173V29.3187Z" fill="#000084"/>
<path d="M62.3553 29.8554C62.2578 29.8554 62.1359 29.831 62.0141 29.7579C61.9166 29.6848 61.8434 29.6117 61.7947 29.5386H61.356C61.4535 29.8798 61.7703 30.1966 62.3309 30.1966C62.6721 30.1966 62.9889 30.0504 63.1595 29.831C63.3058 29.6604 63.4032 29.4411 63.4032 29.0999V27.3451H63.0133V27.6863C62.9158 27.467 62.6233 27.2964 62.3065 27.2964C61.7216 27.2964 61.2829 27.7351 61.2829 28.3444C61.2829 28.9293 61.7216 29.3924 62.3065 29.3924C62.6721 29.3924 62.8914 29.1974 63.0133 28.978V29.173C63.0377 29.6117 62.6721 29.8554 62.3553 29.8554ZM62.8427 28.8318C62.7208 28.9537 62.5502 29.0268 62.3553 29.0268C61.9409 29.0268 61.6728 28.7099 61.6728 28.32C61.6728 27.9057 61.9897 27.6376 62.3553 27.6376C62.599 27.6376 62.7696 27.7351 62.8671 27.8813C62.9645 28.0275 63.0377 28.1981 63.0377 28.3444C63.0377 28.5393 62.9646 28.7099 62.8427 28.8318Z" fill="#000084"/>
<path d="M65.4992 26.6138H65.1093V27.3449H64.7437V27.6374H65.1093V29.319H65.4992V27.6374H65.8648V27.3449H65.4992V26.6138Z" fill="#000084"/>
<path d="M66.1572 29.319H66.5472V28.1979C66.5472 28.0517 66.5715 27.9298 66.669 27.808C66.7421 27.7105 66.8884 27.6374 67.0834 27.6374C67.2783 27.6374 67.4002 27.7105 67.4977 27.808C67.5708 27.9055 67.6195 28.0761 67.6195 28.2467V29.319H68.0095V28.2467C68.0095 27.9786 67.9607 27.7349 67.8389 27.5643C67.717 27.3937 67.522 27.2962 67.2052 27.2962C66.9371 27.2962 66.669 27.3937 66.5715 27.6374V27.2962V26.6138H66.1816V29.319H66.1572Z" fill="#000084"/>
<path d="M70.1054 27.5639C69.9105 27.369 69.6667 27.2715 69.3743 27.2715C68.765 27.2715 68.3263 27.7589 68.3263 28.3195C68.3263 28.8313 68.7162 29.3674 69.3743 29.3674C69.5693 29.3674 69.7642 29.3187 69.9348 29.1968C70.1054 29.0994 70.2517 28.9288 70.3248 28.7094H69.9592C69.8617 28.9288 69.6424 29.0506 69.3987 29.0506C69.1062 29.0506 68.7406 28.8556 68.7406 28.4413H70.4223C70.4466 28.1245 70.3491 27.8077 70.1054 27.5639ZM68.7162 28.1489C68.7406 27.8808 68.9843 27.5883 69.3743 27.5883C69.7399 27.5883 70.0079 27.8808 70.0323 28.1489H68.7162Z" fill="#000084"/>
<path d="M73.4687 27.3205V27.6617C73.3956 27.5155 73.1519 27.2718 72.7376 27.2718C72.177 27.2718 71.7383 27.7105 71.7383 28.3198C71.7383 28.8803 72.1283 29.3678 72.762 29.3678C73.1763 29.3678 73.3956 29.1728 73.4931 28.9534V29.2946H73.8587V26.6138H73.4687V27.3205ZM73.2981 28.8072C73.1763 28.9291 73.0057 29.0266 72.8107 29.0266C72.372 29.0266 72.1283 28.6854 72.1039 28.3198C72.1039 27.9542 72.372 27.6374 72.8107 27.6374C73.0057 27.6374 73.1763 27.7105 73.2981 27.8323C73.42 27.9542 73.4931 28.1248 73.4931 28.3198C73.4931 28.5148 73.42 28.6854 73.2981 28.8072Z" fill="#000084"/>
<path d="M75.2966 27.2715C74.6386 27.2715 74.2487 27.7833 74.2487 28.3195C74.2487 28.8556 74.6386 29.3674 75.2966 29.3674C75.9547 29.3674 76.3446 28.8556 76.3446 28.3195C76.3446 27.7833 75.9547 27.2715 75.2966 27.2715ZM75.2966 29.0262C74.9067 29.0262 74.6142 28.7338 74.6142 28.3438C74.6142 27.9539 74.9067 27.6614 75.2966 27.6614C75.6866 27.6614 75.9791 27.9539 75.9791 28.3438C75.9791 28.7338 75.6622 29.0262 75.2966 29.0262Z" fill="#000084"/>
<path d="M77.2464 26.6138H76.8808V27.3449H76.5153V27.6374H76.8808V29.319H77.2464V27.6374H77.6364V27.3449H77.2464V26.6138Z" fill="#000084"/>
<path d="M78.5868 28.1245C78.3675 28.0757 78.2456 28.0026 78.2212 27.832C78.2212 27.7102 78.3187 27.5883 78.5137 27.5883C78.7087 27.5883 78.8062 27.7102 78.8062 27.8564H79.1717C79.1474 27.4177 78.7818 27.2715 78.5137 27.2715C78.1481 27.2715 77.8557 27.4908 77.8557 27.8808C77.8557 28.1732 78.075 28.3195 78.3431 28.3926C78.6843 28.5144 78.8549 28.5632 78.8549 28.7825C78.8549 28.9531 78.7087 29.075 78.5381 29.075C78.3919 29.075 78.1969 29.0019 78.1969 28.7582H77.8313C77.8557 29.2212 78.2456 29.3918 78.5624 29.3918C78.9524 29.3918 79.2692 29.1237 79.2692 28.7338C79.2205 28.2951 78.8793 28.222 78.5868 28.1245Z" fill="#000084"/>
<path d="M5.76428 8.43253C8.07959 8.67624 10.8092 9.23679 13.6851 10.4066C14.6843 10.8209 15.6835 11.1622 16.6584 11.4302C17.6333 11.1622 18.6325 10.8209 19.6318 10.4066C22.4832 9.23679 25.2372 8.67624 27.5525 8.43253C27.9912 8.38378 29.0392 8.26192 30.5259 8.26192C29.2342 5.89787 27.3576 3.92377 25.091 2.48584C23.3119 2.80267 21.3865 3.31448 19.4124 4.11874C16.5609 5.28858 13.8069 5.84913 11.4916 6.09285C11.0529 6.14159 9.9562 6.26345 8.44516 6.26345C6.90975 6.26345 5.83739 6.14159 5.3987 6.09285C4.98438 6.0441 4.54569 5.99536 4.08263 5.92224C3.49771 6.65339 2.96154 7.43329 2.49847 8.26192C2.57159 8.26192 2.6447 8.26192 2.71782 8.26192C4.22886 8.26192 5.32559 8.38378 5.76428 8.43253Z" fill="#FF5722"/>
<path d="M19.6317 10.4065C18.6325 10.8208 17.6333 11.162 16.6584 11.4301C18.3157 11.8931 19.9242 12.1856 21.3377 12.3562C21.3377 12.3562 21.3621 12.3562 21.4352 12.3806C22.6294 12.5024 23.7262 12.5512 24.6523 12.5755C25.5784 12.5755 26.6508 12.5268 27.8694 12.3806C27.9181 12.3806 27.9668 12.3562 27.9668 12.3562C29.1854 12.21 30.5259 11.9906 31.9394 11.6251C31.5982 10.4552 31.1352 9.33411 30.5746 8.28613C29.0879 8.28613 28.04 8.40799 27.6013 8.45673C25.2372 8.70045 22.4832 9.23663 19.6317 10.4065Z" fill="#00A54A"/>
<path d="M6.56854 19.1806C6.56854 19.1806 6.59292 19.1806 6.66603 19.2049C7.86024 19.3268 8.95697 19.3755 9.88309 19.3999C10.8092 19.3999 11.8816 19.3512 13.1002 19.2049C13.1489 19.2049 13.1976 19.1806 13.1976 19.1806C15.4642 18.9125 18.0963 18.3519 20.8503 17.2308C23.7018 16.061 26.4558 15.5004 28.7711 15.2567C29.2098 15.208 30.3065 15.0861 31.8176 15.0861C32.0613 15.0861 32.2807 15.0861 32.5 15.0861C32.4269 13.8675 32.2319 12.6977 31.9151 11.5766C30.5015 11.9422 29.1611 12.1615 27.9425 12.3078C27.9425 12.3078 27.9181 12.3077 27.845 12.3321C26.6508 12.454 25.5541 12.5027 24.628 12.5271C23.7018 12.5271 22.6295 12.4784 21.4109 12.3321C21.3621 12.3321 21.3134 12.3078 21.3134 12.3078C19.8755 12.1371 18.2913 11.8691 16.634 11.3816C15.6592 11.1135 14.6599 10.7723 13.6607 10.358C10.8092 9.18818 8.05522 8.62763 5.73991 8.38391C5.32559 8.38391 4.22887 8.26205 2.69345 8.28643C2.62034 8.28643 2.54722 8.28643 2.47411 8.28643C1.23115 10.5774 0.5 13.1851 0.5 15.9879C0.5 16.6215 0.548743 17.2552 0.621858 17.8645C2.74219 18.5956 4.78941 18.9856 6.56854 19.1806Z" fill="#00E8FF"/>
<path d="M8.42082 6.28789C9.95623 6.28789 11.0286 6.16603 11.4673 6.11729C13.7826 5.87357 16.5122 5.31302 19.3881 4.14318C21.3622 3.33892 23.2875 2.82711 25.0667 2.51028C22.6051 0.926123 19.6562 0 16.4878 0C11.4673 0 6.98289 2.31531 4.05829 5.94669C4.52135 6.0198 4.96004 6.06855 5.37436 6.11729C5.81305 6.16603 6.90977 6.28789 8.42082 6.28789Z" fill="#E41E26"/>
<path d="M5.5449 22.8119C7.86021 23.0556 10.5898 23.6162 13.4657 24.786C16.2197 25.9071 18.8762 26.4676 21.1184 26.7357C21.1184 26.7357 21.1428 26.7357 21.2159 26.7601C22.4101 26.882 23.5068 26.9307 24.4329 26.9551C25.3591 26.9551 26.4314 26.9063 27.65 26.7601C27.6987 26.7601 27.7475 26.7357 27.7475 26.7357C27.9912 26.7114 28.2349 26.6626 28.503 26.6382C31.0133 23.8111 32.5243 20.1066 32.5243 16.0366C32.5243 15.7441 32.5243 15.4516 32.5 15.1592C32.2806 15.1592 32.0613 15.1592 31.8176 15.1592C30.2821 15.1592 29.2098 15.281 28.7711 15.3298C26.4558 15.5735 23.7262 16.134 20.8503 17.3039C18.0963 18.425 15.4398 18.9855 13.1976 19.2536C13.1976 19.2536 13.1732 19.2536 13.1001 19.278C11.9059 19.3999 10.8092 19.4486 9.88306 19.473C8.95694 19.473 7.88458 19.4242 6.666 19.278C6.61726 19.278 6.56851 19.2536 6.56851 19.2536C4.78938 19.0586 2.74216 18.6443 0.621826 17.9376C0.8168 19.6192 1.27986 21.2034 1.96227 22.69C2.13287 22.69 2.32784 22.69 2.52282 22.69C4.03386 22.6169 5.10621 22.7388 5.5449 22.8119Z" fill="#478EF7"/>
<path d="M16.4878 32.0003C21.2403 32.0003 25.5297 29.9287 28.4543 26.6141C28.2106 26.6385 27.9425 26.6873 27.6988 26.7116C27.6988 26.7116 27.6744 26.7116 27.6013 26.736C26.4071 26.8579 25.3104 26.9066 24.3843 26.931C23.4581 26.931 22.3858 26.8822 21.1672 26.736C21.1185 26.736 21.0697 26.7116 21.0697 26.7116C18.8032 26.4435 16.171 25.883 13.417 24.7619C10.5655 23.5921 7.81154 23.0315 5.49623 22.7878C5.05754 22.739 3.96081 22.6172 2.44977 22.6172C2.2548 22.6172 2.08419 22.6172 1.88922 22.6172C4.47262 28.1496 10.0294 32.0003 16.4878 32.0003Z" fill="#000084"/>
</svg>
